<svg width="26" height="30" viewBox="0 0 26 30" fill="none" xmlns="http://www.w3.org/2000/svg">
<path d="M11.5559 3.90693C12.1185 3.33864 13.0367 3.33864 13.5993 3.90693L24.9069 15.3288C25.2632 15.6887 25.2489 16.1935 24.7799 16.3846C23.5687 16.8783 20.4452 17.6115 12.5776 17.6115C4.70995 17.6115 1.58657 16.8783 0.375226 16.3846C-0.0937434 16.1935 -0.108027 15.6887 0.248268 15.3288L11.5559 3.90693Z" fill="#D9D9D9"/>
<path d="M11.9183 0.716379C11.8862 0.33074 12.1905 0 12.5775 0C12.9644 0 13.2688 0.33074 13.2367 0.716379L12.9668 3.95497C12.9499 4.15743 12.7806 4.31316 12.5775 4.31316C12.3743 4.31316 12.2051 4.15743 12.1882 3.95497L11.9183 0.716379Z" fill="#D9D9D9"/>
<path d="M13.985 0.918424C14.1499 0.568389 14.5788 0.434121 14.9139 0.627609C15.2491 0.82109 15.3473 1.25969 15.1266 1.57759L13.2736 4.24735C13.1578 4.41425 12.9333 4.46449 12.7574 4.36291C12.5815 4.26133 12.5127 4.04184 12.5994 3.85807L13.985 0.918424Z" fill="#D9D9D9"/>
<path d="M11.1705 0.918424C11.0055 0.568389 10.5766 0.434121 10.2415 0.627609C9.90636 0.82109 9.80817 1.25969 10.0288 1.57759L11.8819 4.24735C11.9977 4.41425 12.2221 4.46449 12.3981 4.36291C12.574 4.26133 12.6427 4.04184 12.5561 3.85807L11.1705 0.918424Z" fill="#D9D9D9"/>
<path fill-rule="evenodd" clip-rule="evenodd" d="M3.23242 18.5817C3.23242 18.3623 3.42702 18.1941 3.64447 18.2233C5.64427 18.4913 8.49728 18.6864 12.5776 18.6864C16.6579 18.6864 19.5109 18.4913 21.5107 18.2233C21.7282 18.1941 21.9228 18.3623 21.9228 18.5817V28.0321C21.9228 28.6703 19.2199 29.2114 15.4791 29.3992C15.0723 29.4196 14.7342 29.0931 14.7342 28.6859V25.1575C14.7342 23.9665 13.7687 23.001 12.5776 23.001C11.3865 23.001 10.421 23.9665 10.421 25.1575V28.6859C10.421 29.0931 10.0829 29.4196 9.67613 29.3992C5.93533 29.2114 3.23242 28.6703 3.23242 28.0321V18.5817Z" fill="#D9D9D9"/>
</svg>
