<svg width="35" height="27" viewBox="0 0 35 27" fill="none" xmlns="http://www.w3.org/2000/svg">
<path d="M23.0923 24.9286C28.4757 24.9286 32.8398 20.781 32.8398 15.6648C32.8398 10.5486 28.4757 6.40112 23.0923 6.40112C17.7089 6.40112 13.3447 10.5486 13.3447 15.6648C13.3447 20.781 17.7089 24.9286 23.0923 24.9286Z" fill="black"/>
<path d="M8.51565 1.0376C6.54568 1.0376 4.65641 1.78132 3.26343 3.10516C1.87046 4.42899 1.08789 6.22449 1.08789 8.09667C1.08789 9.96885 1.87046 11.7643 3.26343 13.0882C4.65641 14.412 6.54568 15.1557 8.51565 15.1557C9.44931 15.155 10.3745 14.987 11.2426 14.6605C11.3885 13.1132 11.8683 11.6111 12.6519 10.2478C13.4355 8.88442 14.5062 7.68907 15.7972 6.73623C15.4656 5.13194 14.5584 3.68676 13.2304 2.64745C11.9024 1.60813 10.236 1.03913 8.51565 1.0376Z" fill="black"/>
<path d="M8.51582 0C3.82554 0 0 3.63566 0 8.09313C0 12.5506 3.82554 16.1863 8.51582 16.1863C9.45195 16.1863 10.3506 16.0359 11.1943 15.7686C11.1927 15.7339 11.1913 15.6991 11.1901 15.6644C11.1905 14.9203 11.2683 14.178 11.4221 13.4484C10.552 13.8738 9.56597 14.1181 8.51581 14.1181C5.0016 14.1181 2.17612 11.4329 2.17612 8.09313C2.17612 4.75335 5.0016 2.06812 8.51581 2.06812C11.8293 2.06812 14.528 4.45613 14.8257 7.52844C15.4159 6.98857 16.0631 6.50804 16.7571 6.09449C15.8153 2.6 12.4793 0 8.51581 0H8.51582Z" fill="#D9D9D9"/>
<path d="M8.51566 4.3479C7.4698 4.3479 6.46679 4.74274 5.72726 5.44556C4.98773 6.14839 4.57227 7.10162 4.57227 8.09556C4.57227 9.0895 4.98773 10.0427 5.72726 10.7456C6.46679 11.4484 7.4698 11.8432 8.51566 11.8432C9.56151 11.8432 10.5645 11.4484 11.3041 10.7456C12.0436 10.0427 12.459 9.0895 12.459 8.09556C12.4575 7.80375 12.4202 7.5131 12.3477 7.22953C11.9628 7.58149 11.4495 7.77809 10.9154 7.77807C10.3677 7.77808 9.84238 7.57137 9.45502 7.20339C9.06767 6.83541 8.84994 6.33629 8.84973 5.81578C8.85039 5.30784 9.05819 4.81992 9.42946 4.45454C9.13029 4.3852 8.8236 4.34942 8.51566 4.3479Z" fill="#D9D9D9"/>
<path d="M23.0926 5.0459C16.9375 5.0459 11.917 9.81642 11.917 15.666C11.917 21.5156 16.9375 26.2869 23.0926 26.2869C29.2477 26.2869 34.2683 21.5156 34.2683 15.666C34.2683 9.81642 29.2477 5.0459 23.0926 5.0459ZM23.0926 7.7595C27.7044 7.7595 31.4121 11.2832 31.4121 15.666C31.4121 20.0488 27.7044 23.5733 23.0926 23.5733C18.4809 23.5733 14.7732 20.0488 14.7732 15.666C14.7732 11.2832 18.4809 7.7595 23.0926 7.7595Z" fill="#D9D9D9"/>
<path d="M23.0922 10.7456C21.7198 10.7458 20.4037 11.264 19.4334 12.1864C18.463 13.1087 17.9179 14.3596 17.918 15.6638C17.9179 16.9681 18.463 18.219 19.4334 19.1413C20.4037 20.0637 21.7198 20.5819 23.0922 20.5821C23.7718 20.5821 24.4448 20.4549 25.0727 20.2078C25.7006 19.9606 26.2711 19.5983 26.7516 19.1416C27.2322 18.6849 27.6134 18.1427 27.8735 17.546C28.1335 16.9493 28.2674 16.3097 28.2674 15.6638C28.2654 15.2806 28.2164 14.8988 28.1211 14.5264C27.6163 14.9885 26.9426 15.2468 26.2417 15.247C25.5229 15.247 24.8335 14.9757 24.3251 14.4927C23.8167 14.0098 23.5311 13.3547 23.5309 12.6715C23.532 12.0049 23.805 11.3647 24.2925 10.8854C23.8995 10.7944 23.4967 10.7475 23.0922 10.7456Z" fill="#D9D9D9"/>
</svg>
