<svg width="28" height="28" viewBox="0 0 28 28" fill="none" xmlns="http://www.w3.org/2000/svg">
<path d="M0 0H28V28H0V0ZM14 25.2C16.9704 25.2 19.8192 24.02 21.9196 21.9196C24.02 19.8192 25.2 16.9704 25.2 14C25.2 11.0296 24.02 8.18081 21.9196 6.0804C19.8192 3.98 16.9704 2.8 14 2.8C11.0296 2.8 8.18081 3.98 6.0804 6.0804C3.98 8.18081 2.8 11.0296 2.8 14C2.8 16.9704 3.98 19.8192 6.0804 21.9196C8.18081 24.02 11.0296 25.2 14 25.2ZM14 18.2C12.8861 18.2 11.8178 17.7575 11.0302 16.9698C10.2425 16.1822 9.8 15.1139 9.8 14C9.8 12.8861 10.2425 11.8178 11.0302 11.0302C11.8178 10.2425 12.8861 9.8 14 9.8C15.1139 9.8 16.1822 10.2425 16.9698 11.0302C17.7575 11.8178 18.2 12.8861 18.2 14C18.2 15.1139 17.7575 16.1822 16.9698 16.9698C16.1822 17.7575 15.1139 18.2 14 18.2Z" fill="#D9D9D9"/>
</svg>
