<svg width="17" height="17" viewBox="0 0 17 17" fill="none" xmlns="http://www.w3.org/2000/svg">
  <path d="M5.88429 0C2.63509 0 0 2.63509 0 5.88429C0 9.13349 2.63509 11.7686 5.88429 11.7686C9.13348 11.7686 11.7686 9.13349 11.7686 5.88429C11.7686 2.63509 9.13348 0 5.88429 0ZM5.88429 10.6987C3.22994 10.6987 1.06987 8.53864 1.06987 5.88429C1.06987 3.22994 3.22994 1.06987 5.88429 1.06987C8.53864 1.06987 10.6987 3.22994 10.6987 5.88429C10.6987 8.53864 8.53864 10.6987 5.88429 10.6987ZM10.6987 12.3035L12.3035 10.6987L16.5 14L14 16.5L10.6987 12.3035Z" fill="#D9D9D9"/>
  <path d="M10.6988 11.2337C10.9942 11.2337 11.2337 10.9942 11.2337 10.6988C11.2337 10.4033 10.9942 10.1638 10.6988 10.1638C10.4033 10.1638 10.1638 10.4033 10.1638 10.6988C10.1638 10.9942 10.4033 11.2337 10.6988 11.2337Z" fill="#D9D9D9"/>
  </svg>